<svg xmlns="http://www.w3.org/2000/svg" viewBox="0 0 380 120" role="img" aria-label="Klaxo GmbH">
  <title>Klaxo GmbH</title>
  <defs>
    <linearGradient id="klx-ic" x1="0" y1="0" x2="1" y2="1">
      <stop offset="0%" stop-color="#3AA0FF"/>
      <stop offset="100%" stop-color="#0B5FD1"/>
    </linearGradient>
  </defs>
  <g transform="translate(8 10)">
    <rect x="0" y="0" width="100" height="100" rx="22" fill="url(#klx-ic)"/>
    <!-- car body -->
    <path d="M20 62 L30 42 Q34 36 42 36 H58 Q66 36 70 42 L80 62 Z" fill="#fff"/>
    <rect x="18" y="60" width="64" height="14" rx="4" fill="#fff"/>
    <!-- windows -->
    <path d="M36 44 L42 38 H58 L64 44 Z" fill="#0B5FD1" opacity="0.75"/>
    <!-- wheels -->
    <circle cx="30" cy="78" r="8" fill="#0B0B0F"/>
    <circle cx="70" cy="78" r="8" fill="#0B0B0F"/>
    <circle cx="30" cy="78" r="3" fill="#fff"/>
    <circle cx="70" cy="78" r="3" fill="#fff"/>
    <!-- speed lines -->
    <path d="M84 44 H94 M84 54 H98 M84 64 H90" stroke="#fff" stroke-width="3" stroke-linecap="round" opacity="0.9"/>
  </g>
  <g font-family="Inter, 'Space Grotesk', system-ui, sans-serif" fill="#0B0B0F">
    <text x="128" y="60" font-size="40" font-weight="900" letter-spacing="-1.2">Klaxo</text>
    <text x="130" y="86" font-size="13" font-weight="600" letter-spacing="5" fill="#6B6B6B">RENTALS · MUNICH</text>
  </g>
</svg>
